<?xml version="1.0" encoding="UTF-8" standalone="no"?>
<svg width="179px" height="266px" viewBox="0 0 179 266" version="1.1" xmlns="http://www.w3.org/2000/svg" xmlns:xlink="http://www.w3.org/1999/xlink" xmlns:sketch="http://www.bohemiancoding.com/sketch/ns">
    <!-- Generator: Sketch 3.2.2 (9983) - http://www.bohemiancoding.com/sketch -->
    <title>monogram with full text transparent</title>
    <desc>Created with Sketch.</desc>
    <defs></defs>
    <g id="Page-1" stroke="none" stroke-width="1" fill="none" fill-rule="evenodd" sketch:type="MSPage">
        <g id="monogram-with-full-text" sketch:type="MSArtboardGroup" transform="translate(-109.000000, -67.000000)">
            <g id="monogram-with-full-text-transparent" sketch:type="MSLayerGroup" transform="translate(86.000000, 70.000000)">
                <text id="PHRUG" sketch:type="MSTextLayer" font-family="Avenir Next" font-size="28" font-weight="686" sketch:alignment="middle" letter-spacing="4.46000004" fill="#FFFFFF">
                    <tspan x="50.1603332" y="199">PHRU</tspan>
                    <tspan x="151.300333" y="199" letter-spacing="5.20333338">G</tspan>
                </text>
                <text id="Philippine-Ruby" sketch:type="MSTextLayer" font-family="Futura PT" font-size="24" font-weight="633" sketch:alignment="middle" line-spacing="27" fill="#FFFFFF">
                    <tspan x="28.5" y="230">Philippine Ruby</tspan>
                    <tspan x="46.368" y="257">Users Group</tspan>
                </text>
                <g id="monogram" transform="translate(25.000000, 0.000000)" sketch:type="MSShapeGroup">
                    <path d="M143.434885,0 C145.640537,0 148.625786,1.33277663 150.107462,2.98222557 L172.821109,28.2677744 C174.30062,29.9148121 174.430509,32.6748184 173.103163,34.4431605 L90.8254081,144.056839 C89.5016717,145.820373 87.3476747,145.834394 86.0061738,144.077485 L2.85096907,35.1725151 C1.51311579,33.4203834 1.63040579,30.6738379 3.11461276,29.0360923 C3.11461276,29.0360923 16.2796857,14.5091153 24.2052428,5.76367292 C25.9463524,3.84244861 26.7447861,2.96141828 26.7447861,2.96141828 C28.2269998,1.32587212 31.2114571,0 33.4222575,0 L143.434885,0 Z" id="Path-4" stroke="#FFFFFF" stroke-width="6" stroke-linecap="round" stroke-linejoin="round" transform="translate(87.964286, 73.625000) scale(-1, 1) translate(-87.964286, -73.625000) "></path>
                    <path d="M36.4999998,12 L85.8196143,76.8565369 C86.8248218,78.1784101 88.4488664,78.1800847 89.4498483,76.8565369 L138.5,12" id="Path-2" stroke="#FFFFFF" stroke-width="6" stroke-linecap="round"></path>
                    <path d="M44.5,39 L87.5714286,144.004441" id="Path-6" stroke="#FFFFFF" stroke-width="6" stroke-linecap="round"></path>
                    <path d="M87.5714286,89.9999469 L87.5714286,138.004441" id="Path-8" stroke="#FFFFFF" stroke-width="6" stroke-linecap="round"></path>
                    <path d="M129.499998,42 L87.5714286,144.004441" id="Path-7" stroke="#FFFFFF" stroke-width="6" stroke-linecap="round"></path>
                    <circle id="Oval-1" stroke="#FFFFFF" stroke-width="4" cx="87.5714286" cy="27.25" r="12"></circle>
                    <circle id="Oval-3" fill="#FFFFFF" cx="87.0714286" cy="56.75" r="2.5"></circle>
                    <circle id="Oval-3" fill="#FFFFFF" cx="52.0714286" cy="12.75" r="2.5"></circle>
                    <circle id="Oval-3" fill="#FFFFFF" cx="124.071429" cy="12.75" r="2.5"></circle>
                    <circle id="Oval-3" fill="#FFFFFF" cx="88.0714286" cy="42.75" r="3.5"></circle>
                    <circle id="Oval-3" fill="#FFFFFF" cx="88.0714286" cy="12.75" r="3.5"></circle>
                    <circle id="Oval-3" fill="#FFFFFF" cx="103.071429" cy="27.75" r="3.5"></circle>
                    <circle id="Oval-3" fill="#FFFFFF" cx="72.0714286" cy="27.75" r="3.5"></circle>
                    <circle id="Oval-7" fill="#FFFFFF" transform="translate(77.318380, 38.710155) rotate(-315.000000) translate(-77.318380, -38.710155) " cx="77.3183802" cy="38.7101551" r="3.5"></circle>
                    <circle id="Oval-4" fill="#FFFFFF" transform="translate(98.531584, 17.496952) rotate(-315.000000) translate(-98.531584, -17.496952) " cx="98.5315837" cy="17.4969517" r="3.5"></circle>
                    <circle id="Oval-5" fill="#FFFFFF" transform="translate(98.531584, 38.710155) rotate(-315.000000) translate(-98.531584, -38.710155) " cx="98.5315837" cy="38.7101551" r="3.5"></circle>
                    <circle id="Oval-6" fill="#FFFFFF" transform="translate(76.611273, 16.789845) rotate(-315.000000) translate(-76.611273, -16.789845) " cx="76.6112735" cy="16.7898449" r="3.5"></circle>
                    <path d="M33,32 L2.98333794,32" id="Line" stroke="#FFFFFF" stroke-width="6" stroke-linecap="round"></path>
                    <path d="M170.508331,32 L140.491669,32" id="Line" stroke="#FFFFFF" stroke-width="6" stroke-linecap="round"></path>
                </g>
            </g>
        </g>
    </g>
</svg>